<?xml version="1.0" encoding="UTF-8" standalone="no"?>
<!-- Created with Inkscape (http://www.inkscape.org/) -->

<svg
   xmlns:dc="http://purl.org/dc/elements/1.1/"
   xmlns:cc="http://creativecommons.org/ns#"
   xmlns:rdf="http://www.w3.org/1999/02/22-rdf-syntax-ns#"
   xmlns:svg="http://www.w3.org/2000/svg"
   xmlns="http://www.w3.org/2000/svg"
   xmlns:sodipodi="http://sodipodi.sourceforge.net/DTD/sodipodi-0.dtd"
   xmlns:inkscape="http://www.inkscape.org/namespaces/inkscape"
   id="svg2"
   version="1.1"
   inkscape:version="0.91 r13725"
   xml:space="preserve"
   width="1052.3625"
   height="744.09625"
   viewBox="0 0 1052.3625 744.09625"
   sodipodi:docname="opai-logo-v2.svg"
   inkscape:export-filename="/home/icarojerry/Dropbox/tmp/opai/opai-logo-v2.png"
   inkscape:export-xdpi="90"
   inkscape:export-ydpi="90"><metadata
     id="metadata8"><rdf:RDF><cc:Work
         rdf:about=""><dc:format>image/svg+xml</dc:format><dc:type
           rdf:resource="http://purl.org/dc/dcmitype/StillImage" /><dc:title /></cc:Work></rdf:RDF></metadata><defs
     id="defs6"><clipPath
       clipPathUnits="userSpaceOnUse"
       id="clipPath40"><path
         d="m 0,595.277 841.89,0 L 841.89,0 0,0 0,595.277 Z"
         id="path42"
         inkscape:connector-curvature="0" /></clipPath></defs><sodipodi:namedview
     pagecolor="#ffffff"
     bordercolor="#666666"
     borderopacity="1"
     objecttolerance="10"
     gridtolerance="10"
     guidetolerance="10"
     inkscape:pageopacity="0"
     inkscape:pageshadow="2"
     inkscape:window-width="1440"
     inkscape:window-height="832"
     id="namedview4"
     showgrid="false"
     inkscape:zoom="0.63432654"
     inkscape:cx="21.070758"
     inkscape:cy="273.89907"
     inkscape:window-x="0"
     inkscape:window-y="0"
     inkscape:window-maximized="1"
     inkscape:current-layer="g10" /><g
     id="g10"
     inkscape:groupmode="layer"
     inkscape:label="OPAI2"
     transform="matrix(1.25,0,0,-1.25,0,744.09625)"><g
       id="g4294"
       transform="matrix(1.3342998,0,0,1.3342998,-58.576754,-71.389409)"><g
         transform="translate(554.083,306.9883)"
         id="g12"><path
           inkscape:connector-curvature="0"
           id="path14"
           style="fill:#37337b;fill-opacity:1;fill-rule:evenodd;stroke:none"
           d="M 0,0 -0.163,-0.211 -0.213,-93.929 55.943,-0.03 0,0 Z" /></g><g
         transform="translate(610.3081,306.959)"
         id="g16"><path
           inkscape:connector-curvature="0"
           id="path18"
           style="fill:#403f9a;fill-opacity:1;fill-rule:evenodd;stroke:none"
           d="M 0,0 -0.282,-0.001 -28.991,-48.002 -0.049,-94.543 0,0 Z" /></g><g
         transform="translate(581.3266,259.9805)"
         id="g20"><path
           inkscape:connector-curvature="0"
           id="path22"
           style="fill:#2b3f9d;fill-opacity:1;fill-rule:evenodd;stroke:none"
           d="m 0,0 -27.446,-45.896 0.002,-0.673 56.385,-0.026 0.001,0.054 L 0,0 Z" /></g><g
         transform="translate(610.393,378.1075)"
         id="g24"><path
           inkscape:connector-curvature="0"
           id="path26"
           style="fill:#2b3f9d;fill-opacity:1;fill-rule:evenodd;stroke:none"
           d="m 0,0 -56.263,-72.119 55.945,-0.031 0.281,0.467 L 0,0 Z" /></g><g
         transform="translate(553.9677,378.1387)"
         id="g28"><path
           inkscape:connector-curvature="0"
           id="path30"
           style="fill:#3c74c3;fill-opacity:1;fill-rule:evenodd;stroke:none"
           d="M 0,0 -0.038,-72.198 0.124,-72.2 28.404,-35.945 0.025,-0.001 0,0 Z" /></g><g
         transform="translate(610.3549,378.1084)"
         id="g32"><path
           inkscape:connector-curvature="0"
           id="path34"
           style="fill:#37337b;fill-opacity:1;fill-rule:evenodd;stroke:none"
           d="M 0,0 -56.362,0.029 -27.983,-35.915 0,-0.051 0,0 Z" /></g><g
         id="g36"><g
           clip-path="url(#clipPath40)"
           id="g38"><g
             transform="translate(237.2353,293.0303)"
             id="g44"><path
               inkscape:connector-curvature="0"
               id="path46"
               style="fill:#0f9866;fill-opacity:1;fill-rule:evenodd;stroke:none"
               d="m 0,0 c 0.01,1.033 0.021,2.069 0.022,3.123 -0.039,59.303 -23.386,84.562 -77.584,84.523 -2.707,0 -5.335,-0.068 -7.889,-0.2 L -0.138,-0.138 -0.134,-0.139 0,0 Z" /></g><g
             transform="translate(164.9907,211.8477)"
             id="g48"><path
               inkscape:connector-curvature="0"
               id="path50"
               style="fill:#0f9866;fill-opacity:1;fill-rule:evenodd;stroke:none"
               d="M 0,0 0.019,-0.232 C 49.48,1.381 71.417,25.937 72.239,80.904 L 72.111,81.04 0,0 Z" /></g><g
             transform="translate(84.5659,325.1856)"
             id="g52"><path
               inkscape:connector-curvature="0"
               id="path54"
               style="fill:#0f9866;fill-opacity:1;fill-rule:evenodd;stroke:none"
               d="M 0,0 66.084,55.221 C 27.578,52.964 6.648,35.843 0,0" /></g><g
             transform="translate(155.0737,334.626)"
             id="g56"><path
               inkscape:connector-curvature="0"
               id="path58"
               style="fill:#0ba97a;fill-opacity:1;fill-rule:evenodd;stroke:none"
               d="M 0,0 -3.706,45.827 C -3.948,45.814 -4.181,45.791 -4.424,45.78 L -70.508,-9.44 c 0,-0.015 -0.005,-0.025 -0.006,-0.047 l 0.128,-0.113 70.242,9.567 C -0.096,-0.021 -0.052,-0.007 0,0" /></g><g
             transform="translate(154.9296,334.5928)"
             id="g60"><path
               inkscape:connector-curvature="0"
               id="path62"
               style="fill:#0f9866;fill-opacity:1;fill-rule:evenodd;stroke:none"
               d="m 0,0 -70.242,-9.566 55.821,-50.465 c -1.114,5.819 -1.433,13.024 -1.438,21.525 C -15.875,-15.881 -13.693,-2.393 0,0" /></g><g
             transform="translate(159.6948,257.2198)"
             id="g64"><path
               inkscape:connector-curvature="0"
               id="path66"
               style="fill:#0ba97a;fill-opacity:1;fill-rule:evenodd;stroke:none"
               d="m 0,0 c -11.836,0.01 -17.02,6.053 -19.186,17.342 l -55.949,50.577 c -1.59,-8.605 -2.366,-18.278 -2.358,-29.087 0.02,-27.866 5.349,-48.219 16.536,-61.952 L 0.084,-0.076 0,0 Z" /></g><g
             transform="translate(161.3222,257.2549)"
             id="g68"><path
               inkscape:connector-curvature="0"
               id="path70"
               style="fill:#194738;fill-opacity:1;fill-rule:evenodd;stroke:none"
               d="m 0,0 c -0.432,-0.015 -0.877,-0.027 -1.329,-0.03 l -61.255,-23.125 c 12.623,-15.505 32.708,-22.59 61.048,-22.572 1.699,0.002 3.356,0.026 4.99,0.079 L 3.669,-45.407 0,0 Z" /></g><g
             transform="translate(151.7841,380.4766)"
             id="g72"><path
               inkscape:connector-curvature="0"
               id="path74"
               style="fill:#194738;fill-opacity:1;fill-rule:evenodd;stroke:none"
               d="M 0,0 C -0.138,-0.01 -0.273,-0.015 -0.416,-0.023 L 3.29,-45.851 c 1.418,0.24 2.957,0.363 4.627,0.364 18.615,0.008 20.645,-13.691 20.684,-38.463 L 85.313,-87.584 0,0 Z" /></g><g
             transform="translate(180.3847,296.5264)"
             id="g76"><path
               inkscape:connector-curvature="0"
               id="path78"
               style="fill:#0ba97a;fill-opacity:1;fill-rule:evenodd;stroke:none"
               d="m 0,0 c 0,-0.142 0.003,-0.273 0.002,-0.411 0.018,-24.07 -2.039,-38.053 -19.064,-38.86 l 3.668,-45.408 72.111,81.04 -0.005,0.005 L 0,0 Z" /></g><g
             transform="translate(323.166,310.8702)"
             id="g80"><path
               inkscape:connector-curvature="0"
               id="path82"
               style="fill:#803f28;fill-opacity:1;fill-rule:evenodd;stroke:none"
               d="m 0,0 c -0.056,-14.834 -5.665,-20.155 -19.514,-20.108 l -5.105,0.021 64.243,-29.844 -40.305,58.04 C -0.234,5.883 0.009,3.109 0,0" /></g><g
             transform="translate(306.3789,374.6016)"
             id="g84"><path
               inkscape:connector-curvature="0"
               id="path86"
               style="fill:#be5e30;fill-opacity:1;fill-rule:evenodd;stroke:none"
               d="m 0,0 -7.307,0.024 -0.385,-44.475 68.913,25.893 C 49.201,-4.427 28.604,-0.102 0,0" /></g><g
             transform="translate(298.6865,330.1504)"
             id="g88"><path
               inkscape:connector-curvature="0"
               id="path90"
               style="fill:#fab322;fill-opacity:1;fill-rule:evenodd;stroke:none"
               d="M 0,0 5.104,-0.018 C 16.316,-0.059 21.973,-2.395 23.799,-11.171 L 24.078,-11.215 68.451,25.724 0,0 Z" /></g><g
             transform="translate(380.0337,310.9112)"
             id="g92"><path
               inkscape:connector-curvature="0"
               id="path94"
               style="fill:#fab322;fill-opacity:1;fill-rule:evenodd;stroke:none"
               d="M 0,0 C 0.074,20.944 -4.136,35.38 -12.434,45.133 L -12.896,44.963 -57.27,8.024 0,-0.024 0,0 Z" /></g><g
             transform="translate(322.4853,318.9795)"
             id="g96"><path
               inkscape:connector-curvature="0"
               id="path98"
               style="fill:#fab322;fill-opacity:1;fill-rule:evenodd;stroke:none"
               d="M 0,0 C 0.005,-0.018 10.722,-15.46 21.104,-30.403 L 57.17,-8.041 0,0 Z" /></g><g
             transform="translate(343.5888,288.5762)"
             id="g100"><path
               inkscape:connector-curvature="0"
               id="path102"
               style="fill:#be5e30;fill-opacity:1;fill-rule:evenodd;stroke:none"
               d="m 0,0 c 9.749,-14.031 19.201,-27.637 19.201,-27.637 l 0.195,-0.091 c 11.208,9.899 16.961,25.717 17.049,50.039 L 36.066,22.362 0,0 Z" /></g><g
             transform="translate(298.5473,290.7832)"
             id="g104"><path
               inkscape:connector-curvature="0"
               id="path106"
               style="fill:#e9a223;fill-opacity:1;fill-rule:evenodd;stroke:none"
               d="m 0,0 -0.156,-44.474 7.535,-0.025 c 25.538,-0.092 44.644,3.602 57.059,14.564 L 0,0 Z" /></g><g
             transform="translate(242.4589,374.667)"
             id="g108"><path
               inkscape:connector-curvature="0"
               id="path110"
               style="fill:#f78f20;fill-opacity:1;fill-rule:evenodd;stroke:none"
               d="M 0,0 -0.34,-96.302 55.769,-62.975 0,0 Z" /></g><g
             transform="translate(298.6538,291.4121)"
             id="g112"><path
               inkscape:connector-curvature="0"
               id="path114"
               style="fill:#fab322;fill-opacity:1;fill-rule:evenodd;stroke:none"
               d="m 0,0 0.072,20.468 -0.392,0.441 -56.109,-33.326 0,-0.189 0.104,-0.212 L -0.157,-44.475 0,0 Z" /></g><g
             transform="translate(242.2226,278.9659)"
             id="g116"><path
               inkscape:connector-curvature="0"
               id="path118"
               style="fill:#803f28;fill-opacity:1;fill-rule:evenodd;stroke:none"
               d="m 0,0 31.491,-66.085 0.113,0 24.565,34.428 L 0,0 Z" /></g><g
             transform="translate(273.8261,212.8809)"
             id="g120"><path
               inkscape:connector-curvature="0"
               id="path122"
               style="fill:#f78f20;fill-opacity:1;fill-rule:evenodd;stroke:none"
               d="M 0,0 24.443,-0.087 24.565,34.428 0,0 Z" /></g><g
             transform="translate(241.8862,212.9932)"
             id="g124"><path
               inkscape:connector-curvature="0"
               id="path126"
               style="fill:#be5e30;fill-opacity:1;fill-rule:evenodd;stroke:none"
               d="M 0,0 31.828,-0.112 0.233,66.182 0,0 Z" /></g><g
             transform="translate(298.6865,330.1504)"
             id="g128"><path
               inkscape:connector-curvature="0"
               id="path130"
               style="fill:#803f28;fill-opacity:1;fill-rule:evenodd;stroke:none"
               d="m 0,0 0.386,44.476 -56.614,0.198 0,-0.157 55.769,-62.975 0.395,0.231 L 0,0 Z" /></g><g
             transform="translate(401.0507,324.3457)"
             id="g132"><path
               inkscape:connector-curvature="0"
               id="path134"
               style="fill:#90222c;fill-opacity:1;fill-rule:evenodd;stroke:none"
               d="m 0,0 -24.292,-111.277 55.414,0.137 0.026,0.128 L 0,0 Z" /></g><g
             transform="translate(443.1992,274.9668)"
             id="g136"><path
               inkscape:connector-curvature="0"
               id="path138"
               style="fill:#ee2546;fill-opacity:1;fill-rule:evenodd;stroke:none"
               d="M 0,0 9.091,56.89 -42.125,49.491 -42.148,49.379 -11,-61.633 -7.193,-43.072 0.167,-0.002 0,0 Z" /></g><g
             transform="translate(401.0742,324.458)"
             id="g140"><path
               inkscape:connector-curvature="0"
               id="path142"
               style="fill:#d1243a;fill-opacity:1;fill-rule:evenodd;stroke:none"
               d="M 0,0 51.216,7.398 11.235,51.485 0,0 Z" /></g><g
             transform="translate(497.6274,376.2032)"
             id="g144"><path
               inkscape:connector-curvature="0"
               id="path146"
               style="fill:#90222c;fill-opacity:1;fill-rule:evenodd;stroke:none"
               d="m 0,0 -85.305,-0.212 -0.013,-0.048 39.981,-44.087 6.074,0.018 L 0.023,-0.104 0,0 Z" /></g><g
             transform="translate(518.5127,284.6016)"
             id="g148"><path
               inkscape:connector-curvature="0"
               id="path150"
               style="fill:#d1243a;fill-opacity:1;fill-rule:evenodd;stroke:none"
               d="M 0,0 -20.862,91.497 -60.148,47.273 0,0 Z" /></g><g
             transform="translate(518.5127,284.6016)"
             id="g152"><path
               inkscape:connector-curvature="0"
               id="path154"
               style="fill:#ee224b;fill-opacity:1;fill-rule:evenodd;stroke:none"
               d="m 0,0 -60.148,47.273 8.893,-56.849 -0.592,-0.002 6.727,-43.792 4.469,-17.912 0.275,0 L 0.178,-0.786 0,0 Z" /></g><g
             transform="translate(443.1992,274.9668)"
             id="g156"><path
               inkscape:connector-curvature="0"
               id="path158"
               style="fill:#401419;fill-opacity:1;fill-rule:evenodd;stroke:none"
               d="M 0,0 -7.193,-43.072 24.164,0.059 0,0 Z" /></g><g
             transform="translate(473.393,231.2315)"
             id="g160"><path
               inkscape:connector-curvature="0"
               id="path162"
               style="fill:#d1243a;fill-opacity:1;fill-rule:evenodd;stroke:none"
               d="M 0,0 -6.135,43.794 -37.338,0.698 -0.197,0.789 0,0 Z" /></g><g
             transform="translate(518.6289,284.6026)"
             id="g164"><path
               inkscape:connector-curvature="0"
               id="path166"
               style="fill:#90222c;fill-opacity:1;fill-rule:evenodd;stroke:none"
               d="M 0,0 -40.376,-71.283 16.222,-71.141 0,0 Z" /></g></g></g></g><flowRoot
       xml:space="preserve"
       id="flowRoot4222"
       style="font-style:normal;font-weight:normal;font-size:37.7067337px;line-height:125%;font-family:sans-serif;letter-spacing:0px;word-spacing:0px;fill:#000000;fill-opacity:1;stroke:none;stroke-width:1px;stroke-linecap:butt;stroke-linejoin:miter;stroke-opacity:1;text-anchor:middle;text-align:center;"
       transform="matrix(1.1230005,0,0,-1.1230005,124.77663,767.526)"><flowRegion
         id="flowRegion4224"><rect
           id="rect4226"
           width="620.74512"
           height="99.500984"
           x="-58.999168"
           y="-608.78168"
           style="fill:#000000;fill-opacity:1;text-anchor:middle;text-align:center;"
           transform="scale(1,-1)" /></flowRegion><flowPara
         id="flowPara4228"
         style="font-style:normal;font-variant:normal;font-weight:normal;font-stretch:normal;font-size:70.70012665px;font-family:calibri;-inkscape-font-specification:calibri;fill:#000000;fill-opacity:1;text-anchor:middle;text-align:center;"><flowSpan
           style="font-style:normal;font-variant:normal;font-weight:normal;font-stretch:normal;font-family:calibri;-inkscape-font-specification:calibri;fill:#0f9866;fill-opacity:1;text-anchor:middle;text-align:center;"
           id="flowSpan4398">O</flowSpan><flowSpan
           style="font-style:normal;font-variant:normal;font-weight:normal;font-stretch:normal;font-size:49.86640549px;font-family:calibri;-inkscape-font-specification:calibri;fill:#000000;fill-opacity:1;text-anchor:middle;text-align:center;"
           id="flowSpan4230">PEN</flowSpan><flowSpan
           style="font-style:normal;font-variant:normal;font-weight:normal;font-stretch:normal;font-family:calibri;-inkscape-font-specification:calibri;fill:#f78f20;fill-opacity:1;text-anchor:middle;text-align:center;"
           id="flowSpan4400"> P</flowSpan><flowSpan
           style="font-style:normal;font-variant:normal;font-weight:normal;font-stretch:normal;font-size:49.86640549px;font-family:calibri;-inkscape-font-specification:calibri;fill:#000000;fill-opacity:1;text-anchor:middle;text-align:center;"
           id="flowSpan4232">ROJECTS</flowSpan><flowSpan
           style="font-style:normal;font-variant:normal;font-weight:normal;font-stretch:normal;font-family:calibri;-inkscape-font-specification:calibri;fill:#ee2546;fill-opacity:1;text-anchor:middle;text-align:center;"
           id="flowSpan4402"> A</flowSpan><flowSpan
           style="font-style:normal;font-variant:normal;font-weight:normal;font-stretch:normal;font-size:49.86640549px;font-family:calibri;-inkscape-font-specification:calibri;fill:#000000;fill-opacity:1;text-anchor:middle;text-align:center;"
           id="flowSpan4234">T</flowSpan><flowSpan
           style="font-style:normal;font-variant:normal;font-weight:normal;font-stretch:normal;font-family:calibri;-inkscape-font-specification:calibri;fill:#2b3f9d;fill-opacity:1;text-anchor:middle;text-align:center;"
           id="flowSpan4404"> I</flowSpan><flowSpan
           style="font-style:normal;font-variant:normal;font-weight:normal;font-stretch:normal;font-size:49.86640549px;font-family:calibri;-inkscape-font-specification:calibri;fill:#000000;fill-opacity:1;text-anchor:middle;text-align:center;"
           id="flowSpan4236">FBA</flowSpan></flowPara></flowRoot></g></svg>