<?xml version="1.0" encoding="UTF-8" standalone="no"?>
<!-- Created with Inkscape (http://www.inkscape.org/) -->

<svg
   xmlns:dc="http://purl.org/dc/elements/1.1/"
   xmlns:cc="http://creativecommons.org/ns#"
   xmlns:rdf="http://www.w3.org/1999/02/22-rdf-syntax-ns#"
   xmlns:svg="http://www.w3.org/2000/svg"
   xmlns="http://www.w3.org/2000/svg"
   xmlns:sodipodi="http://sodipodi.sourceforge.net/DTD/sodipodi-0.dtd"
   xmlns:inkscape="http://www.inkscape.org/namespaces/inkscape"
   id="svg2"
   version="1.1"
   inkscape:version="0.91 r13725"
   xml:space="preserve"
   width="1052.3625"
   height="744.09998"
   viewBox="0 0 1052.3625 744.09998"
   sodipodi:docname="opai-logo-v1.svg"
   inkscape:export-filename="/home/icarojerry/tmp/opai-logo.png"
   inkscape:export-xdpi="90"
   inkscape:export-ydpi="90"><metadata
     id="metadata8"><rdf:RDF><cc:Work
         rdf:about=""><dc:format>image/svg+xml</dc:format><dc:type
           rdf:resource="http://purl.org/dc/dcmitype/StillImage" /><dc:title /></cc:Work></rdf:RDF></metadata><defs
     id="defs6"><clipPath
       clipPathUnits="userSpaceOnUse"
       id="clipPath112"><path
         d="m 0,595.28 841.89,0 L 841.89,0 0,0 0,595.28 Z"
         id="path114"
         inkscape:connector-curvature="0" /></clipPath></defs><sodipodi:namedview
     pagecolor="#ffffff"
     bordercolor="#666666"
     borderopacity="1"
     objecttolerance="10"
     gridtolerance="10"
     guidetolerance="10"
     inkscape:pageopacity="0"
     inkscape:pageshadow="2"
     inkscape:window-width="1440"
     inkscape:window-height="832"
     id="namedview4"
     showgrid="false"
     inkscape:zoom="0.63432336"
     inkscape:cx="270.4633"
     inkscape:cy="392.06381"
     inkscape:window-x="0"
     inkscape:window-y="0"
     inkscape:window-maximized="1"
     inkscape:current-layer="g10" /><g
     id="g10"
     inkscape:groupmode="layer"
     inkscape:label="OPAI 1"
     transform="matrix(1.25,0,0,-1.25,0,744.1)"><g
       id="g5275"
       transform="translate(26.484914,-5.0447456)"><g
         transform="matrix(1.3260218,0,0,1.3260218,-154.14768,-61.911952)"
         id="g5131"><g
           id="g12"
           transform="translate(683.03684,278.91614)"><path
             d="M 0,0 0.279,0.006 0.277,0.459 0,0 Z"
             style="fill:#1e130f;fill-opacity:1;fill-rule:nonzero;stroke:none"
             id="path14"
             inkscape:connector-curvature="0" /></g><g
           id="g16"
           transform="translate(683.31394,279.37544)"><path
             d="M 0,0 -0.277,-0.459 0.002,-0.453 0,0 Z"
             style="fill:none;stroke:#1e130f;stroke-width:0.271;stroke-linecap:butt;stroke-linejoin:miter;stroke-miterlimit:10;stroke-dasharray:none;stroke-opacity:1"
             id="path18"
             inkscape:connector-curvature="0" /></g><g
           id="g76"
           transform="translate(687.14174,282.77624)"><path
             d="M 0,0 0.282,0.004 0.277,0.459 0,0 Z"
             style="fill:#000000;fill-opacity:1;fill-rule:nonzero;stroke:none"
             id="path78"
             inkscape:connector-curvature="0" /></g><g
           id="g80"
           transform="translate(631.20164,282.25044)"><path
             d="M 0,0 -0.161,-0.207 0.698,-91.694 55.94,0.525 0,0 Z"
             style="fill:#cfb638;fill-opacity:1;fill-rule:evenodd;stroke:none"
             id="path82"
             inkscape:connector-curvature="0" /></g><g
           id="g84"
           transform="translate(687.42334,282.77974)"><path
             d="M 0,0 -0.281,-0.004 -28.523,-47.146 0.867,-92.293 0,0 Z"
             style="fill:#3676b7;fill-opacity:1;fill-rule:evenodd;stroke:none"
             id="path86"
             inkscape:connector-curvature="0" /></g><g
           id="g88"
           transform="translate(658.89984,235.63324)"><path
             d="m 0,0 -27,-45.077 0.008,-0.655 56.383,0.533 0,0.053 L 0,0 Z"
             style="fill:#00388f;fill-opacity:1;fill-rule:evenodd;stroke:none"
             id="path90"
             inkscape:connector-curvature="0" /></g><g
           id="g92"
           transform="translate(686.76114,353.21134)"><path
             d="m 0,0 -55.56,-70.961 55.941,0.525 0.277,0.459 L 0,0 Z"
             style="fill:#00388f;fill-opacity:1;fill-rule:evenodd;stroke:none"
             id="path94"
             inkscape:connector-curvature="0" /></g><g
           id="g96"
           transform="translate(630.37744,352.73094)"><path
             d="m 0,0 0.663,-70.48 0.161,0 27.929,35.671 L 0.026,0 0,0 Z"
             style="fill:#3676b7;fill-opacity:1;fill-rule:evenodd;stroke:none"
             id="path98"
             inkscape:connector-curvature="0" /></g><g
           id="g100"
           transform="translate(686.76114,353.26024)"><path
             d="M 0,0 -56.357,-0.529 -27.631,-35.338 0,-0.049 0,0 Z"
             style="fill:#cfb447;fill-opacity:1;fill-rule:evenodd;stroke:none"
             id="path102"
             inkscape:connector-curvature="0" /></g></g><g
         transform="matrix(1.3260218,0,0,1.3260218,-149.31965,-59.85667)"
         id="g5205"><g
           id="g256"
           transform="translate(218.17574,330.15964)"><path
             d="m 0,0 -4.35,52.177 c -0.275,-0.018 -0.541,-0.045 -0.817,-0.058 l -75.1,-63.068 c 0,-0.016 -0.004,-0.03 -0.006,-0.054 l 0.146,-0.127 79.962,11.092 C -0.109,-0.024 -0.059,-0.009 0,0"
             style="fill:#b11117;fill-opacity:1;fill-rule:evenodd;stroke:none"
             id="path258"
             inkscape:connector-curvature="0" /></g><g
           id="g276"
           transform="translate(214.30124,382.36274)"><path
             d="m 0,0 c -0.159,-0.011 -0.312,-0.018 -0.475,-0.026 l 4.35,-52.177 c 1.613,0.275 3.366,0.42 5.268,0.425 21.197,0.062 23.547,-15.532 23.662,-43.743 L 97.397,-99.498 0,0 Z"
             style="fill:#008fbf;fill-opacity:1;fill-rule:evenodd;stroke:none"
             id="path278"
             inkscape:connector-curvature="0" /></g><g
           id="g5189"><g
             transform="translate(311.85394,283.02294)"
             id="g236"><path
               inkscape:connector-curvature="0"
               id="path238"
               style="fill:#005996;fill-opacity:1;fill-rule:evenodd;stroke:none"
               d="m 0,0 c 0.01,1.176 0.02,2.355 0.018,3.557 -0.212,67.53 -26.871,96.228 -88.588,96.032 -3.083,-0.007 -6.076,-0.093 -8.983,-0.249 L -0.156,-0.158 -0.15,-0.16 0,0 Z" /></g><g
             transform="translate(229.81294,190.37154)"
             id="g248"><path
               inkscape:connector-curvature="0"
               id="path250"
               style="fill:#354093;fill-opacity:1;fill-rule:evenodd;stroke:none"
               d="m 0,0 0.023,-0.266 c 56.32,1.979 81.232,30.002 82.014,92.599 L 81.891,92.487 0,0 Z" /></g><g
             transform="translate(137.90914,319.21044)"
             id="g252"><path
               inkscape:connector-curvature="0"
               id="path254"
               style="fill:#e12f3d;fill-opacity:1;fill-rule:evenodd;stroke:none"
               d="M 0,0 75.099,63.068 C 31.255,60.39 7.471,40.835 0,0" /></g><g
             transform="translate(218.01114,330.12154)"
             id="g260"><path
               inkscape:connector-curvature="0"
               id="path262"
               style="fill:#e12020;fill-opacity:1;fill-rule:evenodd;stroke:none"
               d="m 0,0 -79.962,-11.092 63.708,-57.311 c -1.285,6.623 -1.668,14.828 -1.698,24.509 C -18.034,-18.131 -15.587,-2.765 0,0" /></g><g
             transform="translate(223.65474,242.02484)"
             id="g264"><path
               inkscape:connector-curvature="0"
               id="path266"
               style="fill:#831417;fill-opacity:1;fill-rule:evenodd;stroke:none"
               d="m 0,0 c -13.478,-0.024 -19.398,6.844 -21.897,19.693 l -63.855,57.439 c -1.787,-9.802 -2.643,-20.82 -2.602,-33.131 0.1,-31.732 6.225,-54.893 19.003,-70.502 L 0.096,-0.086 0,0 Z" /></g><g
             transform="translate(225.50874,242.06974)"
             id="g272"><path
               inkscape:connector-curvature="0"
               id="path274"
               style="fill:#d1003e;fill-opacity:1;fill-rule:evenodd;stroke:none"
               d="m 0,0 c -0.492,-0.021 -0.999,-0.033 -1.514,-0.038 l -69.691,-26.508 c 14.419,-17.619 37.31,-25.631 69.584,-25.53 1.934,0.006 3.822,0.037 5.683,0.101 L 4.304,-51.698 0,0 Z" /></g><g
             transform="translate(247.10644,286.84224)"
             id="g280"><path
               inkscape:connector-curvature="0"
               id="path282"
               style="fill:#002e6d;fill-opacity:1;fill-rule:evenodd;stroke:none"
               d="m 0,0 c 0,-0.16 0.002,-0.31 0.002,-0.468 0.089,-27.408 -2.215,-43.337 -21.6,-44.304 l 4.305,-51.699 81.89,92.488 -0.005,0.005 L 0,0 Z" /></g></g></g><g
         transform="matrix(1.3260218,0,0,1.3260218,44.347553,-47.756053)"
         id="g5246"><g
           id="g404"
           transform="translate(232.60973,298.12821)"><path
             d="M 0,0 5.104,-0.018 C 16.316,-0.057 21.973,-2.391 23.8,-11.166 L 24.079,-11.211 68.446,25.734 0,0 Z"
             style="fill:#c9b039;fill-opacity:1;fill-rule:evenodd;stroke:none"
             id="path406"
             inkscape:connector-curvature="0" /></g><g
           id="g412"
           transform="translate(256.40953,286.96221)"><path
             d="M 0,0 C 0.005,-0.02 10.724,-15.459 21.109,-30.402 L 57.171,-8.033 0,0 Z"
             style="fill:#ceb852;fill-opacity:1;fill-rule:evenodd;stroke:none"
             id="path414"
             inkscape:connector-curvature="0" /></g><g
           id="g436"
           transform="translate(207.76593,179.85481)"><path
             d="M 0,0 24.443,-0.082 24.561,34.433 0,0 Z"
             style="fill:#007535;fill-opacity:1;fill-rule:evenodd;stroke:none"
             id="path438"
             inkscape:connector-curvature="0" /></g><g
           id="g440"
           transform="translate(175.82553,179.96411)"><path
             d="M 0,0 31.829,-0.109 0.224,66.182 0,0 Z"
             style="fill:#00441c;fill-opacity:1;fill-rule:evenodd;stroke:none"
             id="path442"
             inkscape:connector-curvature="0" /></g><g
           id="g5226"
           transform="translate(-148.03771,-9.809728)"><g
             transform="translate(405.12884,288.66254)"
             id="g396"><path
               inkscape:connector-curvature="0"
               id="path398"
               style="fill:#caa000;fill-opacity:1;fill-rule:evenodd;stroke:none"
               d="m 0,0 c -0.052,-14.834 -5.661,-20.158 -19.51,-20.111 l -5.105,0.019 L 39.63,-49.926 -0.682,8.109 C -0.233,5.881 0.009,3.109 0,0" /></g><g
             transform="translate(388.33294,352.39104)"
             id="g400"><path
               inkscape:connector-curvature="0"
               id="path402"
               style="fill:#caa41d;fill-opacity:1;fill-rule:evenodd;stroke:none"
               d="m 0,0 -7.307,0.023 -0.379,-44.476 68.909,25.904 C 49.202,-4.419 28.604,-0.098 0,0" /></g><g
             transform="translate(461.99754,288.70944)"
             id="g408"><path
               inkscape:connector-curvature="0"
               id="path410"
               style="fill:#b98a00;fill-opacity:1;fill-rule:evenodd;stroke:none"
               d="M 0,0 C 0.07,20.945 -4.142,35.381 -12.441,45.133 L -12.904,44.963 -57.271,8.018 0,-0.023 0,0 Z" /></g><g
             transform="translate(425.55614,266.36954)"
             id="g416"><path
               inkscape:connector-curvature="0"
               id="path418"
               style="fill:#c5a223;fill-opacity:1;fill-rule:evenodd;stroke:none"
               d="m 0,0 c 9.75,-14.029 19.203,-27.633 19.203,-27.633 l 0.197,-0.092 c 11.207,9.901 16.957,25.721 17.041,50.041 L 36.063,22.369 0,0 Z" /></g><g
             transform="translate(380.51364,268.57074)"
             id="g420"><path
               inkscape:connector-curvature="0"
               id="path422"
               style="fill:#d8bc32;fill-opacity:1;fill-rule:evenodd;stroke:none"
               d="m 0,0 -0.149,-44.474 7.534,-0.024 c 25.538,-0.088 44.645,3.608 57.058,14.572 L 0,0 Z" /></g><g
             transform="translate(324.41304,352.44774)"
             id="g424"><path
               inkscape:connector-curvature="0"
               id="path426"
               style="fill:#009336;fill-opacity:1;fill-rule:evenodd;stroke:none"
               d="M 0,0 -0.326,-96.303 55.779,-62.967 0,0 Z" /></g><g
             transform="translate(380.51364,268.57074)"
             id="g428"><path
               inkscape:connector-curvature="0"
               id="path430"
               style="fill:#008234;fill-opacity:1;fill-rule:evenodd;stroke:none"
               d="m 0,0 0.069,20.469 -0.391,0.441 -56.105,-33.336 0,-0.189 0.104,-0.211 L -0.149,-44.474 0,0 Z" /></g><g
             transform="translate(324.19034,255.74454)"
             id="g432"><path
               inkscape:connector-curvature="0"
               id="path434"
               style="fill:#1a6529;fill-opacity:1;fill-rule:evenodd;stroke:none"
               d="m 0,0 31.501,-66.08 0.112,0 24.561,34.433 L 0,0 Z" /></g><g
             transform="translate(380.64744,307.93794)"
             id="g444"><path
               inkscape:connector-curvature="0"
               id="path446"
               style="fill:#004019;fill-opacity:1;fill-rule:evenodd;stroke:none"
               d="m 0,0 0.379,44.477 -56.613,0.189 0,-0.156 55.778,-62.967 0.394,0.23 L 0,0 Z" /></g></g></g><g
         transform="matrix(1.3260218,0,0,1.3260218,-158.42629,134.10989)"
         id="g5169"><g
           id="g524"
           transform="translate(487.21628,152.76842)"><path
             d="m 0,0 -24.346,-111.265 55.414,0.112 0.026,0.127 L 0,0 Z"
             style="fill:#e26e21;fill-opacity:1;fill-rule:evenodd;stroke:none"
             id="path526"
             inkscape:connector-curvature="0" /></g><g
           id="g528"
           transform="translate(529.34028,103.36902)"><path
             d="M 0,0 9.118,56.885 -42.101,49.512 -42.124,49.399 -11.03,-61.627 -7.214,-43.068 0.167,0 0,0 Z"
             style="fill:#cc5806;fill-opacity:1;fill-rule:evenodd;stroke:none"
             id="path530"
             inkscape:connector-curvature="0" /></g><g
           id="g532"
           transform="translate(487.23968,152.88072)"><path
             d="M 0,0 51.219,7.373 11.26,51.48 0,0 Z"
             style="fill:#e26e21;fill-opacity:1;fill-rule:evenodd;stroke:none"
             id="path534"
             inkscape:connector-curvature="0" /></g><g
           id="g536"
           transform="translate(583.81778,204.57992)"><path
             d="m 0,0 -85.307,-0.17 -0.011,-0.049 39.959,-44.107 6.075,0.015 L 0.021,-0.104 0,0 Z"
             style="fill:#491912;fill-opacity:1;fill-rule:evenodd;stroke:none"
             id="path538"
             inkscape:connector-curvature="0" /></g><g
           id="g540"
           transform="translate(604.65858,112.96862)"><path
             d="M 0,0 -20.819,91.507 -60.125,47.301 0,0 Z"
             style="fill:#e26e21;fill-opacity:1;fill-rule:evenodd;stroke:none"
             id="path542"
             inkscape:connector-curvature="0" /></g><g
           id="g544"
           transform="translate(604.65858,112.96862)"><path
             d="m 0,0 -60.125,47.301 8.866,-56.852 -0.594,-0.002 6.707,-43.795 4.461,-17.914 0.276,0 L 0.179,-0.786 0,0 Z"
             style="fill:#cc5806;fill-opacity:1;fill-rule:evenodd;stroke:none"
             id="path546"
             inkscape:connector-curvature="0" /></g><g
           id="g548"
           transform="translate(529.34028,103.36902)"><path
             d="M 0,0 -7.214,-43.068 24.165,0.049 0,0 Z"
             style="fill:#87bc68;fill-opacity:1;fill-rule:evenodd;stroke:none"
             id="path550"
             inkscape:connector-curvature="0" /></g><g
           id="g552"
           transform="translate(559.51308,59.620923)"><path
             d="M 0,0 -6.113,43.797 -37.338,0.715 -0.195,0.789 0,0 Z"
             style="fill:#006a2e;fill-opacity:1;fill-rule:evenodd;stroke:none"
             id="path554"
             inkscape:connector-curvature="0" /></g><g
           id="g556"
           transform="translate(604.65858,112.96862)"><path
             d="M 0,0 -40.409,-71.262 16.187,-71.146 0,0 Z"
             style="fill:#e26e21;fill-opacity:1;fill-rule:evenodd;stroke:none"
             id="path558"
             inkscape:connector-curvature="0" /></g></g></g><flowRoot
       xml:space="preserve"
       id="flowRoot4222"
       style="font-style:normal;font-weight:normal;font-size:40px;line-height:125%;font-family:sans-serif;letter-spacing:0px;word-spacing:0px;fill:#e12020;fill-opacity:1;stroke:none;stroke-width:1px;stroke-linecap:butt;stroke-linejoin:miter;stroke-opacity:1"
       transform="matrix(1.1604955,0,0,-1.1604955,45.489789,792.89251)"><flowRegion
         id="flowRegion4224"><rect
           id="rect4226"
           width="930.125"
           height="115.08326"
           x="69.36525"
           y="528.12183"
           style="fill:#e12020;fill-opacity:1" /></flowRegion><flowPara
         id="flowPara4228"
         style="font-style:normal;font-variant:normal;font-weight:normal;font-stretch:normal;font-size:75px;font-family:Calibri;-inkscape-font-specification:Calibri;fill:#e12020;fill-opacity:1">O<flowSpan
   style="font-size:50px;fill:#000000;fill-opacity:1"
   id="flowSpan4230">PEN</flowSpan><flowSpan
   style="fill:#0080ac;fill-opacity:1"
   id="flowSpan4248"> P</flowSpan><flowSpan
   style="font-size:50px;fill:#000000;fill-opacity:1"
   id="flowSpan4232">ROJECTS</flowSpan><flowSpan
   style="fill:#008234;fill-opacity:1"
   id="flowSpan4246"> A</flowSpan><flowSpan
   style="font-size:50px;fill:#000000;fill-opacity:1"
   id="flowSpan4234">T</flowSpan><flowSpan
   style="fill:#e26e21;fill-opacity:1"
   id="flowSpan4244"> I</flowSpan><flowSpan
   style="font-size:50px;fill:#000000;fill-opacity:1"
   id="flowSpan4236">FBA</flowSpan></flowPara></flowRoot></g></svg>